# xmcd
#
# Track frame offsets:
#	150
#	12978
#	26053
#	39178
#	50963
#	63613
#	76801
#	89725
#	102574
#	116561
#
# Disc length: 1750 seconds
#
# Revision: 1
# Processed by: cddbd v1.5.2PL0 Copyright (c) Steve Scherf et al.
# Submitted via: audiograbber 1.83.01
#
DISCID=8606d40a
DTITLE=Freddy Fender - Hear And See The Hits 
DYEAR=1900
DGENRE=
TTITLE0=Wasted Days And Wasted Nights
TTITLE1=Rancho Grande
TTITLE2=Since I Met You Baby
TTITLE3=Before The Next Teardrop Falls (Spanish )
TTITLE4=Squeeze Box
TTITLE5=Talk To Me
TTITLE6=My Special Prayer
TTITLE7=Tell It Like It Is
TTITLE8=Thse Arms Of Mine
TTITLE9=La Bamba (Live)
EXTD=
EXTT0=
EXTT1=
EXTT2=
EXTT3=
EXTT4=
EXTT5=
EXTT6=
EXTT7=
EXTT8=
EXTT9=
PLAYORDER=
